# xmcd CD database file
#
# Track frame offsets:
#	150
#	17820
#	38374
#	56449
#	78038
#	99815
#	122149
#	140775
#	162765
#	181251
#	203479
#	222876
#
# Disc length: 3264 seconds
#
# Revision: 0
# Processed by: cddbd v1.5.1PL0 Copyright (c) Steve Scherf et al.
# Submitted via: CDex 1.60beta1
#
DISCID=8e0cbe0c
DTITLE=Lamont Dozier - An American Original
DYEAR=0
DGENRE=Jazz
TTITLE0=Where Did Your Love Go
TTITLE1=This Old Heart Of Mine
TTITLE2=(Love Is Like A) Heatwave
TTITLE3=Stop! In The Name Of Love
TTITLE4=My World Is Empty Without You
TTITLE5=I Hear A Symphony
TTITLE6=Baby I Need Your Lovin'
TTITLE7=Baby Love
TTITLE8=I Can't Help Myself (Sugar Pie, Honey Bunch)
TTITLE9=How Sweet It Is (To Be Loved By You)
TTITLE10=Reach Out, I'll Be There
TTITLE11=Reflections
EXTD=YEAR: 0
EXTT0=
EXTT1=
EXTT2=
EXTT3=
EXTT4=
EXTT5=
EXTT6=
EXTT7=
EXTT8=
EXTT9=
EXTT10=
EXTT11=
PLAYORDER=
